name C:\Users\u0101727\Documents\MyRepositories\upper-imu-dc\OpenSim\subject0\MA\MA_Splines\angle_in_n6_dof6_4.mot
datacolumns 7
datarows 33
range 433.29000000 433.61000000
endheader 
time	clav_prot	clav_elev	scapula_abduction	scapula_elevation	scapula_upward_rot	scapula_winging	
        433.29000000	        -33.36984042	          7.05722688	         -5.58217594	         -1.85741863	         54.58874201	          6.73993887	
        433.30000000	        -27.88187210	          7.05722688	         -5.58217594	         -1.85741863	         54.58874201	          6.73993887	
        433.31000000	        -22.39390379	          7.05722688	         -5.58217594	         -1.85741863	         54.58874201	          6.73993887	
        433.32000000	        -16.90593547	          7.05722688	         -5.58217594	         -1.85741863	         54.58874201	          6.73993887	
        433.33000000	        -44.34577705	         11.96046367	         -5.58217594	         -1.85741863	         54.58874201	          6.73993887	
        433.34000000	        -38.85780873	         11.96046367	         -5.58217594	         -1.85741863	         54.58874201	          6.73993887	
        433.35000000	        -33.36984042	         11.96046367	         -5.58217594	         -1.85741863	         54.58874201	          6.73993887	
        433.36000000	        -27.88187210	         11.96046367	         -5.58217594	         -1.85741863	         54.58874201	          6.73993887	
        433.37000000	        -22.39390379	         11.96046367	         -5.58217594	         -1.85741863	         54.58874201	          6.73993887	
        433.38000000	        -16.90593547	         11.96046367	         -5.58217594	         -1.85741863	         54.58874201	          6.73993887	
        433.39000000	        -44.34577705	         16.86370047	         -5.58217594	         -1.85741863	         54.58874201	          6.73993887	
        433.40000000	        -38.85780873	         16.86370047	         -5.58217594	         -1.85741863	         54.58874201	          6.73993887	
        433.41000000	        -33.36984042	         16.86370047	         -5.58217594	         -1.85741863	         54.58874201	          6.73993887	
        433.42000000	        -27.88187210	         16.86370047	         -5.58217594	         -1.85741863	         54.58874201	          6.73993887	
        433.43000000	        -22.39390379	         16.86370047	         -5.58217594	         -1.85741863	         54.58874201	          6.73993887	
        433.44000000	        -16.90593547	         16.86370047	         -5.58217594	         -1.85741863	         54.58874201	          6.73993887	
        433.45000000	        -44.34577705	         -7.65248351	          2.85286645	         -1.85741863	         54.58874201	          6.73993887	
        433.46000000	        -38.85780873	         -7.65248351	          2.85286645	         -1.85741863	         54.58874201	          6.73993887	
        433.47000000	        -33.36984042	         -7.65248351	          2.85286645	         -1.85741863	         54.58874201	          6.73993887	
        433.48000000	        -27.88187210	         -7.65248351	          2.85286645	         -1.85741863	         54.58874201	          6.73993887	
        433.49000000	        -22.39390379	         -7.65248351	          2.85286645	         -1.85741863	         54.58874201	          6.73993887	
        433.50000000	        -16.90593547	         -7.65248351	          2.85286645	         -1.85741863	         54.58874201	          6.73993887	
        433.51000000	        -44.34577705	         -2.74924671	          2.85286645	         -1.85741863	         54.58874201	          6.73993887	
        433.52000000	        -38.85780873	         -2.74924671	          2.85286645	         -1.85741863	         54.58874201	          6.73993887	
        433.53000000	        -33.36984042	         -2.74924671	          2.85286645	         -1.85741863	         54.58874201	          6.73993887	
        433.54000000	        -27.88187210	         -2.74924671	          2.85286645	         -1.85741863	         54.58874201	          6.73993887	
        433.55000000	        -22.39390379	         -2.74924671	          2.85286645	         -1.85741863	         54.58874201	          6.73993887	
        433.56000000	        -16.90593547	         -2.74924671	          2.85286645	         -1.85741863	         54.58874201	          6.73993887	
        433.57000000	        -44.34577705	          2.15399008	          2.85286645	         -1.85741863	         54.58874201	          6.73993887	
        433.58000000	        -38.85780873	          2.15399008	          2.85286645	         -1.85741863	         54.58874201	          6.73993887	
        433.59000000	        -33.36984042	          2.15399008	          2.85286645	         -1.85741863	         54.58874201	          6.73993887	
        433.60000000	        -27.88187210	          2.15399008	          2.85286645	         -1.85741863	         54.58874201	          6.73993887	
        433.61000000	        -22.39390379	          2.15399008	          2.85286645	         -1.85741863	         54.58874201	          6.73993887	
